%TF.GenerationSoftware,KiCad,Pcbnew,9.0.5*%
%TF.CreationDate,2025-10-30T23:13:02+01:00*%
%TF.ProjectId,bms_18650,626d735f-3138-4363-9530-2e6b69636164,rev?*%
%TF.SameCoordinates,Original*%
%TF.FileFunction,Copper,L2,Inr*%
%TF.FilePolarity,Positive*%
%FSLAX46Y46*%
G04 Gerber Fmt 4.6, Leading zero omitted, Abs format (unit mm)*
G04 Created by KiCad (PCBNEW 9.0.5) date 2025-10-30 23:13:02*
%MOMM*%
%LPD*%
G01*
G04 APERTURE LIST*
%TA.AperFunction,ViaPad*%
%ADD10C,0.600000*%
%TD*%
%TA.AperFunction,ViaPad*%
%ADD11C,0.500000*%
%TD*%
%TA.AperFunction,Conductor*%
%ADD12C,0.200000*%
%TD*%
G04 APERTURE END LIST*
D10*
%TO.N,Net-(IC1-DSG)*%
X146500000Y-97270928D03*
X152609304Y-102067637D03*
%TO.N,Net-(IC1-VDD)*%
X149597918Y-102549973D03*
X153500000Y-100000000D03*
X151500000Y-106000000D03*
%TO.N,Net-(IC1-CHG)*%
X151338755Y-101704052D03*
X146500000Y-95000000D03*
D11*
%TO.N,CELL-*%
X146925000Y-101145319D03*
X147459475Y-101815639D03*
X147807078Y-102255137D03*
D10*
%TO.N,LINK+*%
X147424086Y-98183219D03*
X152952422Y-100940885D03*
X147819635Y-97675799D03*
X148289541Y-97268215D03*
%TD*%
D12*
%TO.N,Net-(IC1-DSG)*%
X151000000Y-100000000D02*
X152000000Y-101000000D01*
X152000000Y-101458333D02*
X152609304Y-102067637D01*
X146500000Y-100000000D02*
X151000000Y-100000000D01*
X152000000Y-101000000D02*
X152000000Y-101458333D01*
X146500000Y-97270928D02*
X146500000Y-100000000D01*
%TO.N,Net-(IC1-VDD)*%
X150045281Y-103000000D02*
X150500000Y-103000000D01*
X154500000Y-101000000D02*
X154500000Y-102000000D01*
X149597918Y-102552637D02*
X150045281Y-103000000D01*
X153500000Y-100000000D02*
X154500000Y-101000000D01*
X152500000Y-104000000D02*
X151500000Y-104000000D01*
X150500000Y-103000000D02*
X151500000Y-104000000D01*
X151500000Y-106000000D02*
X151500000Y-104000000D01*
X149597918Y-102549973D02*
X149597918Y-102552637D01*
X154500000Y-102000000D02*
X152500000Y-104000000D01*
%TD*%
M02*
